<svg xmlns="http://www.w3.org/2000/svg" version="1.1" xmlns:xlink="http://www.w3.org/1999/xlink" xmlns:svgjs="http://svgjs.dev/svgjs" width="1000" height="219" viewBox="0 0 1000 219"><g transform="matrix(1,0,0,1,-0.6060606060606233,0.045941013024673794)"><svg viewBox="0 0 396 87" data-background-color="#020000" preserveAspectRatio="xMidYMid meet" height="219" width="1000" xmlns="http://www.w3.org/2000/svg" xmlns:xlink="http://www.w3.org/1999/xlink"><defs></defs><g id="tight-bounds" transform="matrix(1,0,0,1,0.2400000000000091,-0.01825053942076238)"><svg viewBox="0 0 395.52 87.0365010788415" height="87.0365010788415" width="395.52"><g><svg viewBox="0 0 551.3165794553445 121.32045424390243" height="87.0365010788415" width="395.52"><g transform="matrix(1,0,0,1,155.79657945534444,38.71369053658536)"><svg viewBox="0 0 395.52 43.893073170731704" height="43.893073170731704" width="395.52"><g><svg viewBox="0 0 395.52 43.893073170731704" height="43.893073170731704" width="395.52"><g><svg viewBox="0 0 395.52 43.893073170731704" height="43.893073170731704" width="395.52"><g transform="matrix(1,0,0,1,0,0)"><svg width="395.52" viewBox="4.25 -35.7 327.98 36.400000000000006" height="43.893073170731704" data-palette-color="#ff4057"><path d="M26.25-12.6L26.25 0 22.05 0 22.05-11.7Q22.05-13 21.45-13.7 20.85-14.4 19.35-14.4L19.35-14.4 8.45-14.4 8.45 0 4.25 0 4.25-35 16.75-35Q19.45-35 21.45-34.23 23.45-33.45 24.78-32.15 26.1-30.85 26.78-29.13 27.45-27.4 27.45-25.5L27.45-25.5 27.45-24Q27.45-22.05 26.38-20.1 25.3-18.15 23.05-17.1L23.05-17.1 23.05-16.5Q24.55-16.25 25.4-15.3 26.25-14.35 26.25-12.6L26.25-12.6ZM8.45-31.1L8.45-18.3 16.25-18.3Q19.8-18.3 21.53-19.83 23.25-21.35 23.25-24.3L23.25-24.3 23.25-25.2Q23.25-27.85 21.53-29.48 19.8-31.1 16.25-31.1L16.25-31.1 8.45-31.1ZM35.3 0L35.3-35 56.5-35 56.5-31.1 39.5-31.1 39.5-19.5 56.2-19.5 56.2-15.6 39.5-15.6 39.5-3.9 56.8-3.9 56.8 0 35.3 0ZM64.2-31.1L64.2-35 88.8-35 88.8-31.1 78.6-31.1 78.6 0 74.4 0 74.4-31.1 64.2-31.1ZM118.04-12.6L118.04 0 113.84 0 113.84-11.7Q113.84-13 113.24-13.7 112.64-14.4 111.14-14.4L111.14-14.4 100.24-14.4 100.24 0 96.04 0 96.04-35 108.54-35Q111.24-35 113.24-34.23 115.24-33.45 116.57-32.15 117.89-30.85 118.57-29.13 119.24-27.4 119.24-25.5L119.24-25.5 119.24-24Q119.24-22.05 118.17-20.1 117.09-18.15 114.84-17.1L114.84-17.1 114.84-16.5Q116.34-16.25 117.19-15.3 118.04-14.35 118.04-12.6L118.04-12.6ZM100.24-31.1L100.24-18.3 108.04-18.3Q111.59-18.3 113.32-19.83 115.04-21.35 115.04-24.3L115.04-24.3 115.04-25.2Q115.04-27.85 113.32-29.48 111.59-31.1 108.04-31.1L108.04-31.1 100.24-31.1ZM125.39-13.6L125.39-21.4Q125.39-28.2 128.64-31.95 131.89-35.7 137.69-35.7L137.69-35.7Q143.49-35.7 146.74-31.95 149.99-28.2 149.99-21.4L149.99-21.4 149.99-13.6Q149.99-6.6 146.74-2.95 143.49 0.7 137.69 0.7L137.69 0.7Q131.89 0.7 128.64-2.95 125.39-6.6 125.39-13.6L125.39-13.6ZM137.69-3.2L137.69-3.2Q141.74-3.2 143.77-5.98 145.79-8.75 145.79-13.9L145.79-13.9 145.79-21.1Q145.79-25.9 143.77-28.85 141.74-31.8 137.69-31.8L137.69-31.8Q133.64-31.8 131.62-28.85 129.59-25.9 129.59-21.1L129.59-21.1 129.59-13.9Q129.59-8.75 131.62-5.98 133.64-3.2 137.69-3.2ZM207.14-23.1L207.14-24.9Q207.14-26.6 206.46-27.9 205.79-29.2 204.64-30.05 203.49-30.9 201.99-31.35 200.49-31.8 198.84-31.8L198.84-31.8Q197.39-31.8 196.09-31.43 194.78-31.05 193.76-30.35 192.74-29.65 192.14-28.63 191.53-27.6 191.53-26.25L191.53-26.25 191.53-25.95Q191.53-24.5 192.14-23.48 192.74-22.45 193.91-21.73 195.09-21 196.84-20.53 198.59-20.05 200.94-19.7L200.94-19.7Q206.44-18.85 209.04-16.48 211.64-14.1 211.64-10.1L211.64-10.1 211.64-9.5Q211.64-7.25 210.86-5.38 210.09-3.5 208.56-2.15 207.04-0.8 204.79-0.05 202.53 0.7 199.59 0.7L199.59 0.7Q196.24 0.7 193.66-0.28 191.09-1.25 189.36-2.98 187.64-4.7 186.74-7.03 185.84-9.35 185.84-12.1L185.84-12.1 185.84-13.6 190.03-13.6 190.03-12.4Q190.03-7.8 192.56-5.5 195.09-3.2 199.59-3.2L199.59-3.2Q203.49-3.2 205.46-4.93 207.44-6.65 207.44-9.5L207.44-9.5 207.44-9.8Q207.44-12.55 205.41-14 203.39-15.45 198.84-16.1L198.84-16.1Q196.19-16.45 194.06-17.18 191.94-17.9 190.44-19.07 188.94-20.25 188.14-21.9 187.34-23.55 187.34-25.8L187.34-25.8 187.34-26.4Q187.34-28.45 188.19-30.15 189.03-31.85 190.56-33.1 192.09-34.35 194.21-35.02 196.34-35.7 198.89-35.7L198.89-35.7Q201.84-35.7 204.16-34.85 206.49-34 208.09-32.58 209.69-31.15 210.51-29.23 211.34-27.3 211.34-25.2L211.34-25.2 211.34-23.1 207.14-23.1ZM216.48 0L216.48-35 224.48-35 229.18-1.8 229.78-1.8 234.48-35 242.48-35 242.48 0 238.58 0 238.58-33.2 237.98-33.2 233.28 0 225.68 0 220.98-33.2 220.38-33.2 220.38 0 216.48 0ZM248.08-35L252.28-35 252.28-11.8Q252.28-7.55 254.25-5.38 256.23-3.2 260.08-3.2L260.08-3.2Q263.93-3.2 265.9-5.38 267.88-7.55 267.88-11.8L267.88-11.8 267.88-35 272.08-35 272.08-11.8Q272.08-5.7 268.88-2.5 265.68 0.7 260.08 0.7L260.08 0.7Q254.48 0.7 251.28-2.5 248.08-5.7 248.08-11.8L248.08-11.8 248.08-35ZM301.63-12.6L301.63 0 297.43 0 297.43-11.7Q297.43-13 296.83-13.7 296.23-14.4 294.73-14.4L294.73-14.4 283.83-14.4 283.83 0 279.63 0 279.63-35 292.13-35Q294.83-35 296.83-34.23 298.83-33.45 300.15-32.15 301.48-30.85 302.15-29.13 302.83-27.4 302.83-25.5L302.83-25.5 302.83-24Q302.83-22.05 301.75-20.1 300.68-18.15 298.43-17.1L298.43-17.1 298.43-16.5Q299.93-16.25 300.78-15.3 301.63-14.35 301.63-12.6L301.63-12.6ZM283.83-31.1L283.83-18.3 291.63-18.3Q295.18-18.3 296.9-19.83 298.63-21.35 298.63-24.3L298.63-24.3 298.63-25.2Q298.63-27.85 296.9-29.48 295.18-31.1 291.63-31.1L291.63-31.1 283.83-31.1ZM310.73 0L310.73-35 332.23-35 332.23-31.1 314.93-31.1 314.93-19.5 331.93-19.5 331.93-15.6 314.93-15.6 314.93 0 310.73 0Z" opacity="1" transform="matrix(1,0,0,1,0,0)" fill="#ff4057" class="undefined-text-0" data-fill-palette-color="primary" id="text-0"></path></svg></g></svg></g></svg></g></svg></g><g><svg viewBox="0 0 145.43447831349079 121.32045424390243" height="121.32045424390243" width="145.43447831349079"><g><svg xmlns="http://www.w3.org/2000/svg" xmlns:xlink="http://www.w3.org/1999/xlink" version="1.1" x="0" y="0" viewBox="1.497 8 97.107 81.006" enable-background="new 0 0 100 100" xml:space="preserve" height="121.32045424390243" width="145.43447831349079" class="icon-icon-0" data-fill-palette-color="accent" id="icon-0"><g fill="#ffffff" data-fill-palette-color="accent"><polygon fill="#ffffff" points="9.598,89.006 98.604,89.006 98.604,16.101 58.201,16.101 58.201,24.201 90.503,24.201    90.503,80.905 17.698,80.905 17.698,56.604 9.598,56.604  " data-fill-palette-color="accent"></polygon><path fill="#ffffff" d="M1.497 48.503h8.101v-8.101h8.101v8.101h8.101v-8.101h8.101v8.101H42v-8.101h8.101v8.101h8.101V32.302h-8.101V16.101H42V8h-8.101v8.101h-8.101V8h-8.101v8.101H9.598v16.201H1.497V48.503zM17.698 32.302v-8.101h8.101v8.101H17.698zM33.899 32.302v-8.101H42v8.101H33.899z" data-fill-palette-color="accent"></path></g></svg></g></svg></g></svg></g></svg><rect width="395.52" height="87.0365010788415" fill="none" stroke="none" visibility="hidden"></rect></g></svg></g></svg>